<?xml version="1.0" standalone="no"?>
<!DOCTYPE svg PUBLIC "-//W3C//DTD SVG 20010904//EN"
 "http://www.w3.org/TR/2001/REC-SVG-20010904/DTD/svg10.dtd">
<svg version="1.0" xmlns="http://www.w3.org/2000/svg"
 width="500.000000pt" height="500.000000pt" viewBox="0 0 500.000000 500.000000"
 preserveAspectRatio="xMidYMid meet">
<metadata>
Created by potrace 1.14, written by Peter Selinger 2001-2017
</metadata>
<g transform="translate(0.000000,500.000000) scale(0.100000,-0.100000)"
fill="#000000" stroke="none">
<path d="M1879 3250 c-128 -16 -236 -96 -296 -218 l-38 -76 -3 -304 c-2 -187
1 -322 7 -353 17 -78 51 -140 111 -200 69 -70 151 -110 240 -117 l65 -5 -33
31 c-46 43 -62 89 -62 174 0 86 21 141 69 181 41 34 67 40 143 35 85 -6 104
-38 61 -105 -12 -18 -19 -20 -40 -12 -50 19 -98 -12 -108 -71 -6 -38 12 -101
34 -114 15 -10 61 -11 88 -2 18 6 25 1 37 -23 27 -51 21 -78 -19 -92 l-35 -13
0 -208 c0 -114 3 -208 7 -208 4 0 101 93 215 208 l209 207 -48 5 c-46 5 -49 7
-63 48 -14 41 -15 42 -62 42 -44 0 -48 -2 -53 -27 -11 -51 -20 -58 -74 -61
-44 -3 -51 -1 -50 15 0 10 24 106 52 213 l52 195 84 0 85 0 51 -205 c47 -188
53 -205 74 -208 l23 -4 -22 22 c-18 18 -21 29 -15 58 10 57 21 64 58 41 39
-23 87 -26 87 -4 0 9 -15 24 -32 33 -54 28 -96 75 -103 116 -10 51 12 105 55
134 31 21 44 23 112 20 96 -4 108 -13 88 -71 l-15 -42 -53 3 c-70 5 -70 -16 3
-57 31 -18 61 -43 70 -60 27 -53 16 -123 -27 -168 l-21 -23 76 0 77 0 0 154 0
155 -42 3 -43 3 0 50 0 50 139 3 c150 3 156 1 156 -50 0 -47 -9 -58 -51 -58
l-39 0 0 -156 0 -157 55 6 c114 12 252 112 304 221 36 78 41 123 41 411 0 298
-6 349 -51 437 -30 60 -111 135 -175 165 -50 23 -217 53 -229 41 -2 -2 2 -22
10 -43 28 -79 14 -192 -31 -252 -35 -46 -92 -64 -194 -61 l-85 3 -3 178 -2
177 -50 0 c-28 0 -50 -5 -50 -10 0 -6 18 -82 40 -170 22 -88 40 -164 40 -170
0 -7 -22 -10 -62 -8 l-61 3 -11 40 c-11 39 -12 40 -63 43 l-51 3 -7 -38 c-4
-21 -12 -41 -18 -45 -14 -9 -91 -11 -99 -2 -4 3 14 81 38 174 24 93 44 172 44
175 0 3 -25 5 -55 5 l-55 0 0 -44 c0 -28 -7 -52 -20 -69 l-20 -26 24 -24 c49
-49 45 -132 -7 -171 -25 -19 -42 -21 -145 -21 l-117 0 -3 178 -2 177 -28 -1
c-15 -1 -52 -5 -83 -9z m328 -403 c63 -33 83 -129 43 -207 -22 -44 -57 -66
-119 -76 l-41 -7 0 -59 0 -59 -57 3 -58 3 -3 190 c-1 105 0 201 3 214 6 23 8
23 103 19 65 -3 108 -10 129 -21z m366 9 c68 -28 107 -102 107 -201 0 -140
-70 -218 -195 -219 -94 0 -155 44 -180 128 -37 122 -2 241 83 286 44 23 138
26 185 6z m381 -15 c54 -34 76 -86 75 -181 -1 -162 -59 -220 -221 -220 -76 0
-89 2 -98 19 -13 26 -13 351 0 387 l10 26 98 -4 c81 -3 104 -8 136 -27z"/>
<path d="M2090 2716 c0 -38 3 -46 19 -46 26 0 43 24 39 57 -2 22 -9 29 -30 31
-27 3 -28 2 -28 -42z"/>
<path d="M2463 2749 c-31 -11 -43 -40 -43 -99 0 -41 5 -56 25 -75 13 -14 31
-25 40 -25 9 0 27 11 40 25 20 19 25 34 25 77 0 79 -34 117 -87 97z"/>
<path d="M2822 2653 c3 -82 6 -98 20 -101 9 -2 26 6 37 17 17 17 21 34 21 84
0 70 -17 97 -59 97 -21 0 -22 -3 -19 -97z"/>
<path d="M2110 3190 c0 -41 8 -47 41 -30 34 19 18 70 -23 70 -14 0 -18 -8 -18
-40z"/>
<path d="M2820 3110 c0 -91 2 -100 18 -100 37 0 57 37 57 107 0 68 -15 93 -57
93 -16 0 -18 -10 -18 -100z"/>
<path d="M2472 3149 c-6 -26 -14 -54 -18 -63 -5 -13 0 -16 25 -16 35 0 39 15
17 85 l-12 40 -12 -46z"/>
<path d="M2110 3040 c0 -32 4 -40 18 -40 41 0 57 51 23 70 -33 17 -41 11 -41
-30z"/>
<path d="M2357 2250 c-8 -19 -27 -93 -27 -102 0 -5 14 -8 30 -8 26 0 30 3 25
23 -3 12 -9 40 -14 62 -5 24 -11 34 -14 25z"/>
</g>
</svg>
